{"title":"X-Men Days of Future Past 2014 HDCAM x264 AC3-R33M","uid":10292602,"size":1734393610,"categoryP":"video","categoryS":"movies","magnet":"?xt=urn:btih:bc364e90d251115d7043b74aeb02ecc2e2822779&amp;dn=X-Men+Days+of+Future+Past+2014+HDCAM+x264+AC3-R33M&amp;tr=udp%3A%2F%2Ftracker.openbittorrent.com%3A80&amp;tr=udp%3A%2F%2Fopen.demonii.com%3A1337&amp;tr=udp%3A%2F%2Ftracker.coppersurfer.tk%3A6969&amp;tr=udp%3A%2F%2Fexodus.desync.com%3A6969","seeders":2,"leechers":1,"uploader":"Thhaque","files":-1,"time":1401879481,"description":"Poster:\n &lt;a href=&quot;\nhttp://i.imgur.com/xyXj2G3.png&quot; rel=&quot;nofollow&quot; target=&quot;_NEW&quot;&gt;\nhttp://i.imgur.com/xyXj2G3.png&lt;/a&gt;\n\n\n\nSources Used - Chinese VOD / Eng Audio-SmY - Thnx\n\n\n\nEnglish Subtitles Hardcoded for Foreign Parts Only.\n\n\n &lt;a href=&quot;\nhttp://www.imdb.com/title/tt1877832/&quot; rel=&quot;nofollow&quot; target=&quot;_NEW&quot;&gt;\nhttp://www.imdb.com/title/tt1877832/&lt;/a&gt;\n\n\n\nThe X-Men send Wolverine to the past in a desperate effort to change history and prevent an event that results in doom for both humans and mutants.\n\n\n\nGeneral\n\nComplete name                            : X-Men Days of Future Past 2014 HD x264                           AC3-R33M.mkv\n\nFormat                                   : Matroska\n\nFormat version                           : Version 2\n\nFile size                                : 1.59 GiB\n\nDuration                                 : 2h 6mn\n\nOverall bit rate mode                    : Variable\n\nOverall bit rate                         : 1 796 Kbps\n\nEncoded date                             : UTC 2014-06-04 01:15:41\n\nWriting application                      : mkvmerge v6.8.0 ('Theme for Great Cities') 32bit built on Mar  2 2014 21:27:07\n\nWriting library                          : libebml v1.3.0 + libmatroska v1.4.1\n\n\n\nVideo\n\nID                                       : 1\n\nFormat                                   : AVC\n\nFormat/Info                              : Advanced Video Codec\n\nFormat profile                           : &lt;a class=&quot;__cf_email__&quot; href=&quot;/cdn-cgi/l/email-protection&quot; data-cfemail=&quot;672f0e000f272b534956&quot;&gt;[email&amp;#160;protected]&lt;/a&gt;&lt;script cf-hash='f9e31' type=&quot;text/javascript&quot;&gt;\n/* &lt;![CDATA[ */!function(){try{var t=&quot;currentScript&quot;in document?document.currentScript:function(){for(var t=document.getElementsByTagName(&quot;script&quot;),e=t.length;e--;)if(t[e].getAttribute(&quot;cf-hash&quot;))return t[e]}();if(t&amp;&amp;t.previousSibling){var e,r,n,i,c=t.previousSibling,a=c.getAttribute(&quot;data-cfemail&quot;);if(a){for(e=&quot;&quot;,r=parseInt(a.substr(0,2),16),n=2;a.length-n;n+=2)i=parseInt(a.substr(n,2),16)^r,e+=String.fromCharCode(i);e=document.createTextNode(e),c.parentNode.replaceChild(e,c)}}}catch(u){}}();/* ]]&gt; */&lt;/script&gt;\n\nFormat settings, CABAC                   : Yes\n\nFormat settings, ReFrames                : 3 frames\n\nCodec ID                                 : V_MPEG4/ISO/AVC\n\nDuration                                 : 2h 6mn\n\nBit rate mode                            : Variable\n\nBit rate                                 : 1 568 Kbps\n\nMaximum bit rate                         : 40.0 Mbps\n\nWidth                                    : 720 pixels\n\nHeight                                   : 304 pixels\n\nDisplay aspect ratio                     : 2.35:1\n\nFrame rate mode                          : Constant\n\nFrame rate                               : 25.000 fps\n\nColor space                              : YUV\n\nChroma subsampling                       : 4:2:0\n\nBit depth                                : 8 bits\n\nScan type                                : Progressive\n\nBits/(Pixel*Frame)                       : 0.287\n\nStream size                              : 1.38 GiB (87%)\n\nWriting library                          : x264 core 142 r2409 d6b4e63\n\n\n\nAudio\n\nID                                       : 2\n\nFormat                                   : AC-3\n\nFormat/Info                              : Audio Coding 3\n\nMode extension                           : CM (complete main)\n\nFormat settings, Endianness              : Big\n\nCodec ID                                 : A_AC3\n\nDuration                                 : 2h 6mn\n\nBit rate mode                            : Constant\n\nBit rate                                 : 192 Kbps\n\nChannel(s)                               : 2 channels\n\nChannel positions                        : Front: L R\n\nSampling rate                            : 48.0 KHz\n\nBit depth                                : 16 bits\n\nCompression mode                         : Lossy\n\nStream size                              : 174 MiB (11%)\n\nLanguage                                 : English\n\nDefault                                  : Yes\n\nForced                                   : No\n\n\n\nScreens:\n &lt;a href=&quot;\nhttp://i.imgur.com/dqFHioN.png&quot; rel=&quot;nofollow&quot; target=&quot;_NEW&quot;&gt;\nhttp://i.imgur.com/dqFHioN.png&lt;/a&gt;\n &lt;a href=&quot;\nhttp://i.imgur.com/bUoz7kb.png&quot; rel=&quot;nofollow&quot; target=&quot;_NEW&quot;&gt;\nhttp://i.imgur.com/bUoz7kb.png&lt;/a&gt;\n &lt;a href=&quot;\nhttp://i.imgur.com/wU3fjHE.png&quot; rel=&quot;nofollow&quot; target=&quot;_NEW&quot;&gt;\nhttp://i.imgur.com/wU3fjHE.png&lt;/a&gt;\n &lt;a href=&quot;\nhttp://i.imgur.com/sOLyJTT.png&quot; rel=&quot;nofollow&quot; target=&quot;_NEW&quot;&gt;\nhttp://i.imgur.com/sOLyJTT.png&lt;/a&gt;\n &lt;a href=&quot;\nhttp://i.imgur.com/BGRHyzu.png&quot; rel=&quot;nofollow&quot; target=&quot;_NEW&quot;&gt;\nhttp://i.imgur.com/BGRHyzu.png&lt;/a&gt;\n &lt;a href=&quot;\nhttp://i.imgur.com/etv86N8.png&quot; rel=&quot;nofollow&quot; target=&quot;_NEW&quot;&gt;\nhttp://i.imgur.com/etv86N8.png&lt;/a&gt;\n &lt;a href=&quot;\nhttp://i.imgur.com/vDlaMX3.png&quot; rel=&quot;nofollow&quot; target=&quot;_NEW&quot;&gt;\nhttp://i.imgur.com/vDlaMX3.png&lt;/a&gt;\n &lt;a href=&quot;\nhttp://i.imgur.com/r1eSFEv.png&quot; rel=&quot;nofollow&quot; target=&quot;_NEW&quot;&gt;\nhttp://i.imgur.com/r1eSFEv.png&lt;/a&gt;","torrent":{"xt":"urn:btih:bc364e90d251115d7043b74aeb02ecc2e2822779","amp;dn":"X-Men+Days+of+Future+Past+2014+HDCAM+x264+AC3-R33M","amp;tr":["udp%3A%2F%2Ftracker.openbittorrent.com%3A80","udp%3A%2F%2Fopen.demonii.com%3A1337","udp%3A%2F%2Ftracker.coppersurfer.tk%3A6969","udp%3A%2F%2Fexodus.desync.com%3A6969"],"infoHash":"bc364e90d251115d7043b74aeb02ecc2e2822779","infoHashBuffer":{"type":"Buffer","data":[188,54,78,144,210,81,17,93,112,67,183,74,235,2,236,194,226,130,39,121]},"announce":[],"urlList":[]}}